<?xml version="1.0" standalone="no"?>
<!DOCTYPE svg PUBLIC "-//W3C//DTD SVG 20010904//EN"
 "http://www.w3.org/TR/2001/REC-SVG-20010904/DTD/svg10.dtd">
<svg version="1.0" xmlns="http://www.w3.org/2000/svg"
 width="1134.000000pt" height="1134.000000pt" viewBox="0 0 1134.000000 1134.000000"
 preserveAspectRatio="xMidYMid meet">
<metadata>
Created by potrace 1.14, written by Peter Selinger 2001-2017
</metadata>
<g transform="translate(0.000000,1134.000000) scale(0.100000,-0.100000)"
fill="#000000" stroke="none">
<path d="M6039 11323 c0 -10 -3 -133 -5 -273 -2 -140 -6 -322 -8 -405 -2 -85
1 -158 6 -169 6 -11 6 -16 1 -13 -6 4 -11 -68 -12 -181 -1 -103 -4 -290 -7
-415 -4 -185 -2 -227 8 -221 10 6 10 4 0 -9 -10 -12 -15 -80 -18 -284 -2 -147
-6 -376 -8 -508 -4 -205 -13 -712 -20 -1149 -2 -98 -5 -120 -19 -131 -9 -7
-17 -16 -17 -21 0 -24 -112 -132 -161 -156 -146 -71 -335 -56 -517 43 -248
133 -426 353 -591 730 -56 130 -129 392 -146 524 -3 28 -8 57 -10 65 -4 15 -8
49 -20 165 -4 33 -8 71 -11 85 -2 14 -6 43 -9 65 -4 22 -11 58 -17 80 -5 22
-10 41 -9 43 4 7 -35 68 -64 101 -30 33 -33 42 -26 69 7 23 6 32 -5 36 -24 9
-15 76 11 76 7 0 18 7 25 15 9 11 8 19 -7 39 -20 27 -37 33 -131 41 -54 5 -66
3 -98 -18 -32 -23 -34 -26 -19 -41 9 -9 25 -16 35 -16 27 0 44 -34 30 -60 -6
-11 -15 -20 -19 -20 -5 0 -11 -10 -15 -23 -4 -17 -22 -30 -63 -47 -210 -85
-359 -300 -442 -635 -18 -76 -32 -145 -37 -190 -1 -11 -5 -45 -9 -75 -17 -130
-12 -491 9 -640 4 -25 9 -58 11 -75 16 -111 56 -296 99 -460 20 -72 134 -431
146 -460 16 -36 247 -688 273 -770 67 -211 91 -371 91 -615 0 -203 -21 -350
-76 -535 -22 -76 -96 -282 -121 -336 -8 -19 -37 -83 -62 -144 -45 -104 -63
-144 -136 -302 -17 -38 -54 -120 -81 -183 -28 -63 -61 -139 -74 -168 -13 -29
-24 -55 -24 -57 0 -2 -11 -28 -24 -57 -149 -327 -364 -908 -381 -1032 -2 -12
-17 -77 -33 -146 -31 -128 -33 -138 -57 -300 -24 -161 -33 -390 -20 -490 3
-19 7 -66 10 -104 3 -38 7 -77 10 -85 2 -9 7 -29 10 -46 24 -138 131 -436 186
-515 10 -14 32 -53 50 -85 56 -103 176 -262 286 -378 140 -149 359 -314 545
-412 l86 -45 1936 0 1936 0 0 3220 0 3219 -77 -38 c-43 -21 -91 -42 -108 -46
-16 -5 -37 -10 -45 -12 -8 -2 -52 -6 -96 -8 -165 -9 -371 75 -489 199 -42 43
-95 113 -95 125 0 6 -4 11 -8 11 -9 0 -49 85 -68 147 -7 23 -17 50 -23 60 -5
11 -12 242 -16 568 -3 303 -8 663 -10 800 -2 138 -7 462 -10 720 -3 259 -8
596 -10 750 -3 266 -16 1226 -19 1495 l-1 125 -548 3 c-516 2 -547 1 -548 -15z
m-1685 -1824 c-3 -5 -10 -7 -15 -3 -5 3 -7 10 -3 15 3 5 10 7 15 3 5 -3 7 -10
3 -15z m1686 -399 c0 -5 -2 -10 -4 -10 -3 0 -8 5 -11 10 -3 6 -1 10 4 10 6 0
11 -4 11 -10z"/>
</g>
</svg>
